{"title":"Cowboys.And.Aliens.2011.TS.XViD-IMAGiNE","uid":6576063,"size":2202128466,"categoryP":"video","categoryS":"movies","magnet":"?xt=urn:btih:f31c8d97618564ba0bf94b8e361e20181ed2cbc8&amp;dn=Cowboys.And.Aliens.2011.TS.XViD-IMAGiNE&amp;tr=udp%3A%2F%2Ftracker.openbittorrent.com%3A80&amp;tr=udp%3A%2F%2Fopen.demonii.com%3A1337&amp;tr=udp%3A%2F%2Ftracker.coppersurfer.tk%3A6969&amp;tr=udp%3A%2F%2Fexodus.desync.com%3A6969","seeders":0,"leechers":1,"uploader":"Test_Verify","files":1,"time":1312157250,"description":"   Another Fine Release Brought to you from - IMAGiNE                   \n                                                \n\n******************************************************************************************                              \n                      Cowboys And Aliens 2011 TS XViD - IMAGiNE                                                                \n******************************************************************************************\n\nRipper ...........: IMAGiNE              IMDB Rating.......: 7.8/10                             \nVideo Codec.......: XViD                 Release Date......: 31/07/11\nAudio Codec.......: MP3                  Theatre Date......: 29/07/11\nAudio Bitrate.....: 128                  Runtime...........: 1h 53mn\nSubtitles.........: NIL                  Language..........: ENGLISH\nResolution........: 720 x 304            IMDb URL..........: http://www.imdb.com/title/tt0409847/\n\n\nDETAILS:\n\nVideo\nID                               : 0\nFormat                           : MPEG-4 Visual\nFormat profile                   : Advanced Simple@L5\nFormat settings, BVOP            : 2\nFormat settings, QPel            : No\nFormat settings, GMC             : No warppoints\nFormat settings, Matrix          : Default (MPEG)\nMuxing mode                      : Packed bitstream\nCodec ID                         : XVID\nCodec ID/Hint                    : XviD\nDuration                         : 1h 53mn\nBit rate                         : 2 435 Kbps\nWidth                            : 720 pixels\nHeight                           : 304 pixels\nDisplay aspect ratio             : 2.35:1\nFrame rate                       : 29.970 fps\nColor space                      : YUV\nChroma subsampling               : 4:2:0\nBit depth                        : 8 bits\nScan type                        : Progressive\nCompression mode                 : Lossy\nBits/(Pixel*Frame)               : 0.371\nStream size                      : 1.94 GiB (94%)\nWriting library                  : XviD 64\n\nAudio\nID                               : 1\nFormat                           : MPEG Audio\nFormat version                   : Version 1\nFormat profile                   : Layer 3\nCodec ID                         : 55\nCodec ID/Hint                    : MP3\nDuration                         : 1h 53mn\nBit rate mode                    : Constant\nBit rate                         : 128 Kbps\nChannel(s)                       : 2 channels\nSampling rate                    : 44.1 KHz\nCompression mode                 : Lossy\nStream size                      : 104 MiB (5%)\nAlignment                        : Split accross interleaves\nInterleave, duration             : 33 ms (1.00 video frame)\nInterleave, preload duration     : 500 ms\n\n\n\nSOURCES:\n\nVIDEO:Thanks m8ty\nAUDIO:Thanks m8ty\n\nNOTES:\n\n\nWell firstly the source......some very nice 1080p files,but like all cams they have issues.\nIssues with this was that the colours seem to have a green hue,filmed at a angle and the dark scenes\nwere very dark ( like that in the cinema though ).\nSo we had to use the perspective filter to pull it straight and then crop all unwanted borders.Then from there\nwe changed the RGB eq to balance the colours out better.....also used brightness,contrast,heavy denoiser,sharpness filters.\nGot to pre warn you,so hope you read before you download  the dark scenes are still very dark and cranking up the brightness\nanymore you lose other details as you create hotspots.\nAudio we have to clean up by using a hiss removal and changing the EQ and then we synced it to our encode.\n\nAnyway enjoy this pretty dam good TS \n\n\nSCREENS:\n\n\n\n\n\n\n\n\n\n","torrent":{"xt":"urn:btih:f31c8d97618564ba0bf94b8e361e20181ed2cbc8","amp;dn":"Cowboys.And.Aliens.2011.TS.XViD-IMAGiNE","amp;tr":["udp%3A%2F%2Ftracker.openbittorrent.com%3A80","udp%3A%2F%2Fopen.demonii.com%3A1337","udp%3A%2F%2Ftracker.coppersurfer.tk%3A6969","udp%3A%2F%2Fexodus.desync.com%3A6969"],"infoHash":"f31c8d97618564ba0bf94b8e361e20181ed2cbc8","infoHashBuffer":{"type":"Buffer","data":[243,28,141,151,97,133,100,186,11,249,75,142,54,30,32,24,30,210,203,200]},"announce":[],"urlList":[]}}